<svg width="38" height="30" viewBox="0 0 38 30" fill="none" xmlns="http://www.w3.org/2000/svg">
<path d="M0 28.6364C0 28.998 0.142984 29.3449 0.397498 29.6006C0.652012 29.8563 0.997206 30 1.35714 30H36.6429C37.0028 30 37.348 29.8563 37.6025 29.6006C37.857 29.3449 38 28.998 38 28.6364V12.1023H0V28.6364ZM5.59821 16.875C5.59821 16.6942 5.66971 16.5207 5.79696 16.3929C5.92422 16.265 6.09682 16.1932 6.27679 16.1932H14.0804C14.2603 16.1932 14.4329 16.265 14.5602 16.3929C14.6874 16.5207 14.7589 16.6942 14.7589 16.875V22.3295C14.7589 22.5104 14.6874 22.6838 14.5602 22.8117C14.4329 22.9395 14.2603 23.0114 14.0804 23.0114H6.27679C6.09682 23.0114 5.92422 22.9395 5.79696 22.8117C5.66971 22.6838 5.59821 22.5104 5.59821 22.3295V16.875ZM36.6429 0H1.35714C0.997206 0 0.652012 0.143669 0.397498 0.3994C0.142984 0.655132 0 1.00198 0 1.36364V6.98864H38V1.36364C38 1.00198 37.857 0.655132 37.6025 0.3994C37.348 0.143669 37.0028 0 36.6429 0Z" fill="#345DBB"/>
</svg>