<svg width="51" height="41" viewBox="0 0 51 41" fill="none" xmlns="http://www.w3.org/2000/svg">
<g clip-path="url(#clip0_37_610)">
<path d="M49.725 28.1875H48.45V19.5311C48.45 18.5141 48.0436 17.5371 47.3264 16.8164L39.3656 8.8166C38.6484 8.0959 37.6763 7.6875 36.6642 7.6875H33.15V3.84375C33.15 1.72168 31.4367 0 29.325 0H8.925C6.81328 0 5.1 1.72168 5.1 3.84375V7.6875H0.6375C0.286875 7.6875 0 7.97578 0 8.32812V9.60938C0 9.96172 0.286875 10.25 0.6375 10.25H22.3125C22.6631 10.25 22.95 10.5383 22.95 10.8906V12.1719C22.95 12.5242 22.6631 12.8125 22.3125 12.8125H3.1875C2.83687 12.8125 2.55 13.1008 2.55 13.4531V14.7344C2.55 15.0867 2.83687 15.375 3.1875 15.375H19.7625C20.1131 15.375 20.4 15.6633 20.4 16.0156V17.2969C20.4 17.6492 20.1131 17.9375 19.7625 17.9375H0.6375C0.286875 17.9375 0 18.2258 0 18.5781V19.8594C0 20.2117 0.286875 20.5 0.6375 20.5H17.2125C17.5631 20.5 17.85 20.7883 17.85 21.1406V22.4219C17.85 22.7742 17.5631 23.0625 17.2125 23.0625H5.1V33.3125C5.1 37.5566 8.52656 41 12.75 41C16.9734 41 20.4 37.5566 20.4 33.3125H30.6C30.6 37.5566 34.0266 41 38.25 41C42.4734 41 45.9 37.5566 45.9 33.3125H49.725C50.4263 33.3125 51 32.7359 51 32.0312V29.4688C51 28.7641 50.4263 28.1875 49.725 28.1875ZM12.75 37.1562C10.6383 37.1562 8.925 35.4346 8.925 33.3125C8.925 31.1904 10.6383 29.4688 12.75 29.4688C14.8617 29.4688 16.575 31.1904 16.575 33.3125C16.575 35.4346 14.8617 37.1562 12.75 37.1562ZM38.25 37.1562C36.1383 37.1562 34.425 35.4346 34.425 33.3125C34.425 31.1904 36.1383 29.4688 38.25 29.4688C40.3617 29.4688 42.075 31.1904 42.075 33.3125C42.075 35.4346 40.3617 37.1562 38.25 37.1562ZM44.625 20.5H33.15V11.5312H36.6642L44.625 19.5311V20.5Z" fill="#3D98CC"/>
</g>
<defs>
<clipPath id="clip0_37_610">
<rect width="51" height="41" fill="white"/>
</clipPath>
</defs>
</svg>