<svg width="18" height="12" viewBox="0 0 18 12" fill="none" xmlns="http://www.w3.org/2000/svg">
<path d="M17.55 8.18555H17.1V5.84389C17.1 5.56879 16.9566 5.30451 16.7034 5.10955L13.8937 2.94553C13.6406 2.75057 13.2975 2.64009 12.9403 2.64009H11.7V1.60032C11.7 1.02628 11.0953 0.560547 10.35 0.560547H3.15C2.40469 0.560547 1.8 1.02628 1.8 1.60032V2.64009H0.225C0.10125 2.64009 0 2.71808 0 2.81339V3.15998C0 3.25529 0.10125 3.33327 0.225 3.33327H7.875C7.99875 3.33327 8.1 3.41126 8.1 3.50657V3.85316C8.1 3.94847 7.99875 4.02646 7.875 4.02646H1.125C1.00125 4.02646 0.9 4.10444 0.9 4.19975V4.54634C0.9 4.64165 1.00125 4.71964 1.125 4.71964H6.975C7.09875 4.71964 7.2 4.79762 7.2 4.89293V5.23952C7.2 5.33484 7.09875 5.41282 6.975 5.41282H0.225C0.10125 5.41282 0 5.4908 0 5.58611V5.93271C0 6.02802 0.10125 6.106 0.225 6.106H6.075C6.19875 6.106 6.3 6.18398 6.3 6.2793V6.62589C6.3 6.7212 6.19875 6.79918 6.075 6.79918H1.8V9.57191C1.8 10.72 3.00937 11.6515 4.5 11.6515C5.99062 11.6515 7.2 10.72 7.2 9.57191H10.8C10.8 10.72 12.0094 11.6515 13.5 11.6515C14.9906 11.6515 16.2 10.72 16.2 9.57191H17.55C17.7975 9.57191 18 9.41594 18 9.22532V8.53214C18 8.34151 17.7975 8.18555 17.55 8.18555ZM4.5 10.6117C3.75469 10.6117 3.15 10.146 3.15 9.57191C3.15 8.99787 3.75469 8.53214 4.5 8.53214C5.24531 8.53214 5.85 8.99787 5.85 9.57191C5.85 10.146 5.24531 10.6117 4.5 10.6117ZM13.5 10.6117C12.7547 10.6117 12.15 10.146 12.15 9.57191C12.15 8.99787 12.7547 8.53214 13.5 8.53214C14.2453 8.53214 14.85 8.99787 14.85 9.57191C14.85 10.146 14.2453 10.6117 13.5 10.6117ZM15.75 6.106H11.7V3.67987H12.9403L15.75 5.84389V6.106Z" fill="#555555"/>
</svg>