<svg width="38" height="37" viewBox="0 0 38 37" fill="none" xmlns="http://www.w3.org/2000/svg">
<path d="M28.5 14.8V4.93333L19 0L9.5 4.93333V14.8L0 19.7333V32.0667L9.5 37L19 32.0667L28.5 37L38 32.0667V19.7333L28.5 14.8ZM19.2138 2.76267L26.125 6.31467L19.95 9.52133L13.0387 5.96933L19.2138 2.76267ZM11.875 6.85733L19 10.5573V19.4373L11.875 15.7373V6.85733ZM9.5 34.2373L2.375 30.5373V21.6573L9.5 25.3573V34.2373ZM10.165 24.3707L3.325 20.7693L9.5 17.5627L16.34 21.1147L10.165 24.3707ZM28.5 34.2373L21.375 30.5373V21.6573L28.5 25.3573V34.2373ZM29.165 24.3707L22.325 20.7693L28.5 17.5627L35.34 21.1147L29.165 24.3707Z" fill="#345DBB"/>
</svg>